<?xml version="1.0" encoding="utf-8" standalone="no" ?>
<!--Generated by Edraw, SVGExporter, v1.0-->
<svg version="1.1" xmlns="http://www.w3.org/2000/svg" xmlns:xlink="http://www.w3.org/1999/xlink" xmlns:ed="http://www.edrawsoft.com/schema/svg" ed:version="version 5" viewBox="0 0 710 717">
    <style type="text/css">
        <![CDATA[
            .st1 {fill:#FF8000;stroke:#3C5C74; stroke-width:1; stroke-linejoin:bevel; }
            .st2 {fill:url(#grad1);stroke:none; stroke-width:1; stroke-linejoin:bevel; }
            .st3 {fill:url(#grad2);stroke:none; stroke-width:1; stroke-linejoin:bevel; }
            .st4 {fill:url(#grad3);stroke:none; stroke-width:1; stroke-linejoin:bevel; }
            .st5 {fill:url(#grad4);stroke:#545454; stroke-width:1; stroke-linejoin:bevel; }
            .st6 {fill:url(#grad5);stroke:#545454; stroke-width:1; stroke-linejoin:bevel; }
            .st7 {fill:url(#grad6);stroke:#545454; stroke-width:1; stroke-linejoin:bevel; }
            .st8 {fill:url(#grad7);stroke:#3C5C74; stroke-width:1; stroke-linejoin:bevel; }
            .st9 {fill:url(#grad8);stroke:#545454; stroke-width:1; stroke-linejoin:bevel; }
            .st10 {fill:url(#grad9);stroke:#545454; stroke-width:1; stroke-linejoin:bevel; }
            .st11 {fill:url(#grad10);stroke:#545454; stroke-width:1; stroke-linejoin:bevel; }
            .st12 {fill:url(#grad11);stroke:#545454; stroke-width:1; stroke-linejoin:bevel; }
            .st13 {fill:url(#grad7);}
            .st14 {fill:none;stroke:#999999; stroke-width:1; stroke-linejoin:bevel; }
            .st15 {fill:url(#grad7);stroke:#999999; stroke-width:1; stroke-linejoin:bevel; }
            .st16 {fill:url(#grad12);stroke:#545454; stroke-width:1; stroke-linejoin:bevel; }
            .st17 {fill:#FFFFFF;stroke:#000000; stroke-width:1; stroke-linejoin:bevel; }
            .st18 {fill:#FFFFFF;}
            .st19 {fill:none;stroke:#545454; stroke-width:3; stroke-linejoin:bevel; }
            .st20 {fill:#FFFFFF;stroke:#545454; stroke-width:3; stroke-linejoin:bevel; }
            .st21 {fill:none;stroke:#3C5C74; stroke-width:1; stroke-linejoin:bevel; }
            .st22 {fill:url(#grad13);stroke:#545454; stroke-width:1; stroke-linejoin:bevel; }
            .st23 {fill:url(#grad14);stroke:#545454; stroke-width:1; stroke-linejoin:bevel; }
            .st24 {fill:url(#grad15);stroke:#545454; stroke-width:1; stroke-linejoin:bevel; }
            .st25 {fill:url(#grad16);stroke:#545454; stroke-width:1; stroke-linejoin:bevel; }
            .st26 {fill:url(#grad17);stroke:#3C5C74; stroke-width:1; stroke-linejoin:bevel; }
            .st27 {fill:url(#grad18);stroke:#545454; stroke-width:1; stroke-linejoin:bevel; }
            .st28 {fill:url(#grad19);stroke:#545454; stroke-width:1; stroke-linejoin:bevel; }
            .st29 {fill:url(#grad20);stroke:#545454; stroke-width:1; stroke-linejoin:bevel; }
            .st30 {fill:url(#grad21);stroke:#545454; stroke-width:1; stroke-linejoin:bevel; }
            .st31 {fill:url(#grad22);stroke:#545454; stroke-width:1; stroke-linejoin:bevel; }
            .st32 {fill:url(#grad23);stroke:#545454; stroke-width:1; stroke-linejoin:bevel; }
            .st33 {fill:url(#grad24);stroke:#545454; stroke-width:1; stroke-linejoin:bevel; }
            .st34 {fill:url(#grad25);stroke:#545454; stroke-width:1; stroke-linejoin:bevel; }
            .st35 {fill:url(#grad26);stroke:#545454; stroke-width:1; stroke-linejoin:bevel; }
            .st36 {fill:none;stroke:#545454; stroke-width:0.75; stroke-linejoin:bevel; stroke-dasharray:8.25,3.75; }
            .st37 {fill:#FFFFFF;stroke:#545454; stroke-width:0.75; stroke-linejoin:bevel; stroke-dasharray:8.25,3.75; }
            .st38 {fill:url(#grad16);}
            .st39 {fill:none;stroke:#545454; stroke-width:1; stroke-linejoin:bevel; }
        ]]>

    </style>
    <defs id="Gradients">
        <radialGradient id="grad1" spreadMethod="pad" gradientUnits="userSpaceOnUse" cx="10.5" cy="10.5" r="10.5">
            <stop offset="0.00" stop-color="#FF9933" stop-opacity="1.00" />
            <stop offset="0.60" stop-color="#FF8000" stop-opacity="1.00" />
            <stop offset="1.00" stop-color="#CC6600" stop-opacity="1.00" />
        </radialGradient>
        <radialGradient id="grad2" spreadMethod="pad" gradientUnits="userSpaceOnUse" cx="10.5" cy="9.5" r="10.5">
            <stop offset="0.00" stop-color="#FFFFFF" stop-opacity="0.40" />
            <stop offset="1.00" stop-color="#FFFFFF" stop-opacity="0.04" />
        </radialGradient>
        <linearGradient id="grad3" gradientUnits="userSpaceOnUse" x1="0.00" y1="0.00" x2="0.00" y2="11.00">
            <stop offset="0.00" stop-color="#FFFFFF" stop-opacity="1.00" />
            <stop offset="0.60" stop-color="#FFFFFF" stop-opacity="0.20" />
            <stop offset="1.00" stop-color="#FFFFFF" stop-opacity="0.00" />
        </linearGradient>
        <linearGradient id="grad4" gradientUnits="userSpaceOnUse" x1="0.00" y1="-60.00" x2="0.00" y2="112.00">
            <stop offset="0.00" stop-color="#00AF54" stop-opacity="0.50" />
            <stop offset="1.00" stop-color="#00AF54" stop-opacity="0.50" />
        </linearGradient>
        <linearGradient id="grad5" gradientUnits="userSpaceOnUse" x1="0.00" y1="0.00" x2="0.00" y2="232.00">
            <stop offset="0.00" stop-color="#00AF54" stop-opacity="0.50" />
            <stop offset="1.00" stop-color="#00AF54" stop-opacity="0.50" />
        </linearGradient>
        <linearGradient id="grad6" gradientUnits="userSpaceOnUse" x1="19.00" y1="-50.00" x2="19.00" y2="-16.00">
            <stop offset="0.00" stop-color="#00AF54" stop-opacity="0.50" />
            <stop offset="1.00" stop-color="#00AF54" stop-opacity="0.50" />
        </linearGradient>
        <linearGradient id="grad7" gradientUnits="userSpaceOnUse" x1="0.00" y1="0.00" x2="1.00" y2="0.00">
            <stop offset="0.00" stop-color="#8F8F8F" stop-opacity="1.00" />
            <stop offset="1.00" stop-color="#E8E8E8" stop-opacity="1.00" />
        </linearGradient>
        <linearGradient id="grad8" gradientUnits="userSpaceOnUse" x1="0.00" y1="0.00" x2="21.00" y2="0.00">
            <stop offset="0.00" stop-color="#8F8F8F" stop-opacity="1.00" />
            <stop offset="1.00" stop-color="#E8E8E8" stop-opacity="1.00" />
        </linearGradient>
        <linearGradient id="grad9" gradientUnits="userSpaceOnUse" x1="0.00" y1="0.00" x2="62.00" y2="0.00">
            <stop offset="0.00" stop-color="#8F8F8F" stop-opacity="1.00" />
            <stop offset="1.00" stop-color="#E8E8E8" stop-opacity="1.00" />
        </linearGradient>
        <linearGradient id="grad10" gradientUnits="userSpaceOnUse" x1="0.00" y1="0.00" x2="82.00" y2="0.00">
            <stop offset="0.00" stop-color="#8F8F8F" stop-opacity="1.00" />
            <stop offset="1.00" stop-color="#E8E8E8" stop-opacity="1.00" />
        </linearGradient>
        <linearGradient id="grad11" gradientUnits="userSpaceOnUse" x1="0.00" y1="0.00" x2="62.00" y2="0.00">
            <stop offset="0.00" stop-color="#8F8F8F" stop-opacity="1.00" />
            <stop offset="1.00" stop-color="#E8E8E8" stop-opacity="1.00" />
        </linearGradient>
        <linearGradient id="grad12" gradientUnits="userSpaceOnUse" x1="0.00" y1="0.00" x2="82.00" y2="0.00">
            <stop offset="0.00" stop-color="#8F8F8F" stop-opacity="1.00" />
            <stop offset="1.00" stop-color="#E8E8E8" stop-opacity="1.00" />
        </linearGradient>
        <linearGradient id="grad13" gradientUnits="userSpaceOnUse" x1="0.00" y1="0.00" x2="0.00" y2="81.00">
            <stop offset="0.00" stop-color="#FCFCFC" stop-opacity="1.00" />
            <stop offset="0.50" stop-color="#F5F5F5" stop-opacity="1.00" />
            <stop offset="1.00" stop-color="#EEEEEE" stop-opacity="1.00" />
        </linearGradient>
        <linearGradient id="grad14" gradientUnits="userSpaceOnUse" x1="0.00" y1="0.00" x2="0.00" y2="33.00">
            <stop offset="0.00" stop-color="#FCFCFC" stop-opacity="1.00" />
            <stop offset="0.50" stop-color="#F5F5F5" stop-opacity="1.00" />
            <stop offset="1.00" stop-color="#EEEEEE" stop-opacity="1.00" />
        </linearGradient>
        <linearGradient id="grad15" gradientUnits="userSpaceOnUse" x1="0.00" y1="0.00" x2="0.00" y2="81.00">
            <stop offset="0.00" stop-color="#D8D8D8" stop-opacity="1.00" />
            <stop offset="1.00" stop-color="#BCBCBC" stop-opacity="1.00" />
        </linearGradient>
        <linearGradient id="grad16" gradientUnits="userSpaceOnUse" x1="0.00" y1="0.00" x2="0.00" y2="1.00">
            <stop offset="0.00" stop-color="#FCFCFC" stop-opacity="1.00" />
            <stop offset="0.50" stop-color="#F5F5F5" stop-opacity="1.00" />
            <stop offset="1.00" stop-color="#EEEEEE" stop-opacity="1.00" />
        </linearGradient>
        <linearGradient id="grad17" gradientUnits="userSpaceOnUse" x1="0.00" y1="0.00" x2="0.00" y2="1.00">
            <stop offset="0.00" stop-color="#00AFEE" stop-opacity="0.50" />
            <stop offset="1.00" stop-color="#00AFEE" stop-opacity="0.50" />
        </linearGradient>
        <linearGradient id="grad18" gradientUnits="userSpaceOnUse" x1="0.00" y1="0.00" x2="0.00" y2="17.00">
            <stop offset="0.00" stop-color="#00AFEE" stop-opacity="0.50" />
            <stop offset="1.00" stop-color="#00AFEE" stop-opacity="0.50" />
        </linearGradient>
        <linearGradient id="grad19" gradientUnits="userSpaceOnUse" x1="0.00" y1="0.00" x2="0.00" y2="31.00">
            <stop offset="0.00" stop-color="#00AFEE" stop-opacity="0.50" />
            <stop offset="1.00" stop-color="#00AFEE" stop-opacity="0.50" />
        </linearGradient>
        <linearGradient id="grad20" gradientUnits="userSpaceOnUse" x1="0.00" y1="0.00" x2="0.00" y2="171.00">
            <stop offset="0.00" stop-color="#00AFEE" stop-opacity="0.50" />
            <stop offset="1.00" stop-color="#00AFEE" stop-opacity="0.50" />
        </linearGradient>
        <linearGradient id="grad21" gradientUnits="userSpaceOnUse" x1="88.00" y1="-36.00" x2="88.00" y2="-1.00">
            <stop offset="0.00" stop-color="#00AFEE" stop-opacity="0.50" />
            <stop offset="1.00" stop-color="#00AFEE" stop-opacity="0.50" />
        </linearGradient>
        <linearGradient id="grad22" gradientUnits="userSpaceOnUse" x1="0.00" y1="0.00" x2="21.00" y2="0.00">
            <stop offset="0.00" stop-color="#8F8F8F" stop-opacity="1.00" />
            <stop offset="1.00" stop-color="#E8E8E8" stop-opacity="1.00" />
        </linearGradient>
        <linearGradient id="grad23" gradientUnits="userSpaceOnUse" x1="0.00" y1="0.00" x2="61.00" y2="0.00">
            <stop offset="0.00" stop-color="#8F8F8F" stop-opacity="1.00" />
            <stop offset="1.00" stop-color="#E8E8E8" stop-opacity="1.00" />
        </linearGradient>
        <linearGradient id="grad24" gradientUnits="userSpaceOnUse" x1="0.00" y1="0.00" x2="81.00" y2="0.00">
            <stop offset="0.00" stop-color="#8F8F8F" stop-opacity="1.00" />
            <stop offset="1.00" stop-color="#E8E8E8" stop-opacity="1.00" />
        </linearGradient>
        <linearGradient id="grad25" gradientUnits="userSpaceOnUse" x1="0.00" y1="0.00" x2="61.00" y2="0.00">
            <stop offset="0.00" stop-color="#8F8F8F" stop-opacity="1.00" />
            <stop offset="1.00" stop-color="#E8E8E8" stop-opacity="1.00" />
        </linearGradient>
        <linearGradient id="grad26" gradientUnits="userSpaceOnUse" x1="0.00" y1="0.00" x2="81.00" y2="0.00">
            <stop offset="0.00" stop-color="#8F8F8F" stop-opacity="1.00" />
            <stop offset="1.00" stop-color="#E8E8E8" stop-opacity="1.00" />
        </linearGradient>
    </defs>
    <defs id="Markers" />
    <defs id="Filters" />
    <g>
        <title>Layer-1</title>
        <g id="204" transform="translate(487.00,584.86)">
            <g id="205">
                <path d="M0.00,10.00 C0.00,4.47 4.48,0.00 10.00,0.00 C15.52,0.00 20.00,4.47 20.00,10.00 C20.00,15.52 15.52,20.00 10.00,20.00 C4.48,20.00 0.00,15.52 0.00,10.00 z" class="st2" />
            </g>
            <g id="206" transform="translate(0.47,0.17)">
                <path d="M0.00,9.52 C0.00,4.26 4.27,0.00 9.53,0.00 C14.79,0.00 19.06,4.26 19.06,9.52 C19.06,14.78 14.71,17.98 9.45,17.98 C4.19,17.98 0.00,14.78 0.00,9.52 z" class="st3" />
            </g>
            <g id="207" transform="translate(2.98,0.32)">
                <path d="M0.00,4.83 C0.00,2.16 3.14,0.00 7.02,0.00 C10.90,0.00 14.05,2.16 14.05,4.83 C14.05,7.49 10.90,9.65 7.02,9.65 C3.14,9.65 0.00,7.49 0.00,4.83 z" class="st4" />
            </g>
        </g>
        <g id="150" transform="translate(467.00,335.00) rotate(180.00,30.00,55.50)">
            <path d="M0.00,-60.00 L60.00,0.00 L60.00,111.00 L0.00,111.00 L0.00,-60.00 z" class="st5" />
        </g>
        <g id="151" transform="translate(467.00,105.00)">
            <path d="M60.00,230.16 L19.33,0.00 L40.33,0.00 L0.00,230.16 L60.00,230.16 z" class="st6" />
        </g>
        <g id="152" transform="translate(467.00,612.00)">
            <path d="M20.00,-49.83 L40.00,-49.83 L30.00,-17.00 z" class="st7" />
        </g>
        <g id="155" transform="translate(457.00,436.00)">
            <g id="156" transform="translate(30.00,123.66)">
                <path d="M0.00,2.50 C0.00,1.12 4.48,0.00 10.00,0.00 C15.52,0.00 20.00,1.12 20.00,2.50 C20.00,3.88 15.52,5.00 10.00,5.00 C4.48,5.00 0.00,3.88 0.00,2.50 z" class="st9" />
            </g>
            <g id="157" transform="translate(10.00,106.16) rotate(180.00,30.00,10.00)">
                <path d="M20.00,0.00 L40.00,0.00 L60.00,20.00 L0.00,20.00 L20.00,0.00 z" class="st10" />
            </g>
            <g id="158" transform="translate(0.00,0.17)">
                <path d="M80.00,6.00 L80.00,0.00 L0.00,0.00 L0.00,6.00 L80.00,6.00 z" class="st11" />
            </g>
            <g id="159" transform="translate(10.00,16.17)">
                <path d="M60.00,90.00 L60.00,0.00 L0.00,0.00 L0.00,90.00 L60.00,90.00 z" class="st12" />
            </g>
            <g id="160">
                <path d="M0.00,2.00 L80.00,0.00 " class="st14" />
            </g>
            <g id="161" transform="translate(0.00,1.50)">
                <path d="M0.00,2.00 L80.00,0.00 " class="st14" />
            </g>
            <g id="162" transform="translate(0.00,4.50)">
                <path d="M0.00,2.00 L80.00,0.00 " class="st14" />
            </g>
            <g id="163" transform="translate(0.00,3.00)">
                <path d="M0.00,2.00 L80.00,0.00 " class="st14" />
            </g>
            <g id="164" transform="translate(0.00,6.17) rotate(180.00,40.00,5.00)">
                <path d="M10.00,0.00 L70.00,0.00 L80.00,10.00 L0.00,10.00 L10.00,0.00 z" class="st16" />
            </g>
        </g>
        <g id="170" transform="translate(489.80,287.00) rotate(-90.00,7.20,48.00)">
            <path d="M7.20,96.00 C23.11,45.26 7.20,0.00 7.20,0.00 C7.20,0.00 -9.40,44.17 7.20,96.00 z" class="st17" />
        </g>
        <g id="171" transform="translate(501.00,164.60)">
            <path d="M0.00,0.00 L39.60,0.00 " class="st19" />
        </g>
        <g id="172" transform="translate(453.40,164.60)">
            <path d="M0.00,0.00 L39.60,0.00 " class="st19" />
        </g>
        <g id="173" transform="translate(20.94,554.98)">
            <g id="174">
                <path d="M128.00,80.00 C134.63,80.00 140.00,74.63 140.00,68.00 L140.00,12.00 C140.00,5.37 134.63,0.00 128.00,0.00 L12.00,0.00 C5.37,0.00 0.00,5.37 0.00,12.00 L0.00,68.00 C0.00,74.63 5.37,80.00 12.00,80.00 L128.00,80.00 z" class="st22" />
                <text>
                    <tspan x="42.06" y="48.02" style="font-family:Arial;fill:#000000;font-size:16pt;">Laser</tspan>
                </text>
            </g>
            <g id="175" transform="translate(140.00,24.00)">
                <path d="M4.00,32.00 L4.00,0.00 L0.00,0.00 L0.00,32.00 L4.00,32.00 z" class="st23" />
            </g>
        </g>
        <g id="176" transform="translate(449.00,21.00)">
            <path d="M84.00,80.00 C90.63,80.00 96.00,74.63 96.00,68.00 L96.00,12.00 C96.00,5.37 90.63,0.00 84.00,0.00 L12.00,0.00 C5.37,0.00 0.00,5.37 0.00,12.00 L0.00,68.00 C0.00,74.63 5.37,80.00 12.00,80.00 L84.00,80.00 z" class="st24" />
        </g>
        <g id="177" transform="translate(495.00,87.00) rotate(90.00,2.00,16.00)">
            <path d="M4.00,32.00 L4.00,0.00 L0.00,0.00 L0.00,32.00 L4.00,32.00 z" class="st23" />
        </g>
        <g id="178" transform="translate(561.00,151.00)">
            <path d="M0.00,0.00 L128.00,0.00 L128.00,24.00 L0.00,24.00 L0.00,0.00 z" style="visibility:hidden" />
            <text>
                <tspan x="30.00" y="20.00" style="font-family:Arial;fill:#000000;font-size:16pt;">pinhole</tspan>
            </text>
        </g>
        <g id="179" transform="translate(429.00,49.00)">
            <path d="M0.00,0.00 L136.00,0.00 L136.00,24.00 L0.00,24.00 L0.00,0.00 z" style="visibility:hidden" />
            <text>
                <tspan x="27.00" y="20.00" style="font-family:Arial;fill:#000000;font-size:16pt;">Detector</tspan>
            </text>
        </g>
        <g id="180" transform="translate(561.00,323.00)">
            <path d="M0.00,0.00 L128.00,0.00 L128.00,24.00 L0.00,24.00 L0.00,0.00 z" style="visibility:hidden" />
            <text>
                <tspan x="21.00" y="20.00" style="font-family:Arial;fill:#000000;font-size:16pt;">tube lens</tspan>
            </text>
        </g>
        <g id="182" transform="translate(338.59,661.00)">
            <path d="M0.00,0.00 L128.00,0.00 L128.00,24.00 L0.00,24.00 L0.00,0.00 z" style="visibility:hidden" />
            <text>
                <tspan x="12.41" y="8.00" style="font-family:Arial;fill:#000000;font-size:16pt;">illumination</tspan>
                <tspan x="21.41" y="32.00" style="font-family:Arial;fill:#000000;font-size:16pt;">objective</tspan>
            </text>
        </g>
        <g id="183" transform="translate(185.89,509.98)">
            <path d="M0.00,0.00 L128.00,0.00 L128.00,24.00 L0.00,24.00 L0.00,0.00 z" style="visibility:hidden" />
            <text>
                <tspan x="38.11" y="8.02" style="font-family:Arial;fill:#000000;font-size:16pt;">beam </tspan>
                <tspan x="20.11" y="32.02" style="font-family:Arial;fill:#000000;font-size:16pt;">expander</tspan>
            </text>
        </g>
        <g id="184" transform="translate(497.00,564.67)">
            <path d="M0.00,0.00 L128.00,0.00 L128.00,24.00 L0.00,24.00 L0.00,0.00 z" style="visibility:hidden" />
            <text>
                <tspan x="19.00" y="20.33" style="font-family:Arial;fill:#000000;font-size:16pt;">specimen</tspan>
            </text>
        </g>
        <g id="186" transform="translate(164.94,564.75)">
            <g id="187" transform="translate(0.00,22.23)">
                <path d="M70.00,16.00 L70.00,0.00 L0.00,0.00 L0.00,16.00 L70.00,16.00 z" class="st27" />
            </g>
            <g id="188" transform="translate(54.95,15.28) rotate(-90.00,30.00,14.95)">
                <path d="M22.00,0.00 L38.00,0.00 L60.00,29.89 L0.00,29.89 L22.00,0.00 z" class="st28" />
            </g>
            <g id="189" transform="translate(154.97,-54.93) rotate(89.90,30.00,84.97)">
                <path d="M0.00,59.90 L60.00,0.00 L60.00,169.95 L0.00,169.95 L0.00,59.90 z" class="st29" />
            </g>
        </g>
        <g id="191" transform="translate(258.84,554.98)">
            <path d="M6.00,80.00 C19.26,37.72 6.00,0.00 6.00,0.00 C6.00,0.00 -7.83,36.81 6.00,80.00 z" class="st17" />
        </g>
        <g id="192" transform="translate(232.58,584.48)">
            <path d="M0.00,0.00 L4.72,0.00 C4.72,0.00 1.30,10.04 4.72,21.00 L0.00,21.00 C0.06,21.00 3.19,12.40 0.00,0.00 z" class="st17" />
        </g>
        <g id="193" transform="translate(499.99,693.41) rotate(-90.00,0.00,0.00)">
            <path d="M88.41,-35.50 L108.41,-35.50 L98.41,-2.99 z" class="st30" />
        </g>
        <g id="194" transform="translate(362.59,530.60) rotate(-90.00,40.00,64.40)">
            <g id="195" transform="translate(30.00,123.79)">
                <path d="M0.00,2.50 C0.00,1.12 4.48,0.00 10.00,0.00 C15.52,0.00 20.00,1.12 20.00,2.50 C20.00,3.88 15.52,5.01 10.00,5.01 C4.48,5.01 0.00,3.88 0.00,2.50 z" class="st31" />
            </g>
            <g id="196" transform="translate(10.00,106.27) rotate(180.00,30.00,10.01)">
                <path d="M20.00,0.00 L40.00,0.00 L60.00,20.02 L0.00,20.02 L20.00,0.00 z" class="st32" />
            </g>
            <g id="197" transform="translate(0.00,0.17)">
                <path d="M80.00,6.01 L80.00,0.00 L0.00,0.00 L0.00,6.01 L80.00,6.01 z" class="st33" />
            </g>
            <g id="198" transform="translate(10.00,16.18)">
                <path d="M60.00,90.09 L60.00,0.00 L0.00,0.00 L0.00,90.09 L60.00,90.09 z" class="st34" />
            </g>
            <g id="199">
                <path d="M0.00,2.00 L80.00,0.00 " class="st14" />
            </g>
            <g id="200" transform="translate(0.00,1.50)">
                <path d="M0.00,2.00 L80.00,0.00 " class="st14" />
            </g>
            <g id="201" transform="translate(0.00,4.50)">
                <path d="M0.00,2.00 L80.00,0.00 " class="st14" />
            </g>
            <g id="202" transform="translate(0.00,3.00)">
                <path d="M0.00,2.00 L80.00,0.00 " class="st14" />
            </g>
            <g id="203" transform="translate(0.00,6.17) rotate(180.00,40.00,5.01)">
                <path d="M10.00,0.00 L70.00,0.00 L80.00,10.01 L0.00,10.01 L10.00,0.00 z" class="st35" />
            </g>
        </g>
        <g id="211" transform="translate(561.00,488.33)">
            <path d="M0.00,0.00 L128.00,0.00 L128.00,24.00 L0.00,24.00 L0.00,0.00 z" style="visibility:hidden" />
            <text>
                <tspan x="28.00" y="7.67" style="font-family:Arial;fill:#000000;font-size:16pt;">imaging</tspan>
                <tspan x="21.00" y="31.67" style="font-family:Arial;fill:#000000;font-size:16pt;">objective</tspan>
            </text>
        </g>
        <g id="212" transform="translate(457.00,615.00) rotate(90.00,40.00,0.00)">
            <path d="M0.00,0.00 L80.00,0.00 " class="st36" />
        </g>
        <g id="213" transform="translate(477.00,595.00)">
            <path d="M0.00,0.00 L80.00,0.00 " class="st36" />
        </g>
        <g id="215" transform="translate(480.20,612.00) rotate(89.33,17.00,0.00)">
            <path d="M34.00,0.00 A34.00 34.00 0.00 0 0 0.15,-34.00 " class="st39" />
        </g>
        <g id="216" transform="translate(527.00,625.00)">
            <path d="M0.00,0.00 L20.00,0.00 L20.00,20.00 L0.00,20.00 L0.00,0.00 z" style="visibility:hidden" />
            <text>
                <tspan x="1.00" y="-2.00" style="font-family:Arial;fill:#000000;font-size:16pt;">ϑ</tspan>
            </text>
        </g>
    </g>
</svg>
