<?xml version="1.0" encoding="UTF-8" standalone="no"?>
<!-- Created with Inkscape (http://www.inkscape.org/) -->

<svg
   xmlns:dc="http://purl.org/dc/elements/1.1/"
   xmlns:cc="http://creativecommons.org/ns#"
   xmlns:rdf="http://www.w3.org/1999/02/22-rdf-syntax-ns#"
   xmlns:svg="http://www.w3.org/2000/svg"
   xmlns="http://www.w3.org/2000/svg"
   xmlns:inkscape="http://www.inkscape.org/namespaces/inkscape"
   version="1.1"
   width="53.75"
   height="112.5"
   id="svg2"
   xml:space="preserve"><metadata
     id="metadata8"><rdf:RDF><cc:Work
         rdf:about=""><dc:format>image/svg+xml</dc:format><dc:type
           rdf:resource="http://purl.org/dc/dcmitype/StillImage" /></cc:Work></rdf:RDF></metadata><defs
     id="defs6" /><g
     transform="matrix(1.25,0,0,-1.25,0,112.5)"
     id="g10"><g
       transform="scale(0.1,0.1)"
       id="g12"><path
         d="m 409.355,300.77 0,316.007 -387.3159,0 0,-316.007 c 0,-106.665 86.9919,-193.657 193.6599,-193.657 106.668,0 193.656,86.992 193.656,193.657 z m 8.149,0.425 0,324.414 -403.6056,0 0,-324.414 c 0,-111.152 90.6486,-201.8005 201.8006,-201.8005 111.153,0 201.805,90.6485 201.805,201.8005"
         inkscape:connector-curvature="0"
         id="path14"
         style="fill:#d7d7d7;fill-opacity:1;fill-rule:evenodd;stroke:none" /><path
         d="m 409.355,300.773 0,316.004 -387.3159,0 0,-316.004 c 0,-106.668 86.9919,-193.66 193.6599,-193.66 106.664,0 193.656,86.992 193.656,193.66"
         inkscape:connector-curvature="0"
         id="path16"
         style="fill:#173a79;fill-opacity:1;fill-rule:evenodd;stroke:none" /><path
         d="m 198.258,635.141 0,47.832 -125.8557,0 0,-1.727 c -0.0039,-3.961 -1.6328,-7.566 -4.2578,-10.191 -2.6133,-2.61 -6.2148,-4.235 -10.1718,-4.235 l -6.0391,0 c -3.957,0 -7.5547,1.625 -10.168,4.235 -2.625,2.625 -4.2578,6.234 -4.2578,10.191 l 0,1.723 -1.043,0 c -3.957,0.004 -7.5664,1.633 -10.1914,4.258 -2.6093,2.613 -4.2343,6.214 -4.2343,10.171 l 0,6.04 c 0,3.957 1.625,7.554 4.2343,10.167 2.625,2.625 6.2344,4.258 10.1914,4.258 l 1.0469,0 0,1.727 c 0,3.969 1.6211,7.578 4.2305,10.187 l 0,-0.019 c 2.625,2.625 6.2344,4.254 10.1914,4.254 l 6.0391,0 c 3.957,0 7.5585,-1.621 10.1718,-4.231 l 0.0196,0 c 2.6132,-2.613 4.2343,-6.219 4.2343,-10.191 l 0,-1.731 125.8596,0 0,47.832 -75.5,0 0,-1.726 c -0.004,-3.957 -1.637,-7.57 -4.262,-10.192 -2.609,-2.609 -6.207,-4.23 -10.168,-4.23 l -6.035,0 c -3.9571,0 -7.5625,1.621 -10.1719,4.23 -2.625,2.625 -4.2539,6.235 -4.2578,10.192 l 0,1.723 -1.043,0 c -3.957,0.003 -7.5664,1.636 -10.1914,4.261 -2.6094,2.61 -4.2305,6.211 -4.2305,10.168 l 0,6.039 c 0,3.957 1.6211,7.559 4.2305,10.168 2.625,2.625 6.2344,4.254 10.1914,4.258 l 1.0469,0 0,1.727 c 0,3.968 1.6211,7.578 4.2344,10.191 2.6093,2.609 6.2187,4.23 10.1914,4.23 l 6.035,0 c 3.973,0 7.582,-1.621 10.192,-4.23 l 0,-0.02 c 2.613,-2.613 4.234,-6.214 4.234,-10.171 l 0,-1.731 75.504,0 0,42.676 -1.731,0 c -3.961,0 -7.558,1.621 -10.172,4.23 l -0.019,0.02 c -2.613,2.613 -4.234,6.215 -4.234,10.172 l 0,6.039 c 0,3.973 1.621,7.578 4.234,10.191 2.613,2.61 6.219,4.231 10.191,4.231 l 1.727,0 0,1.047 c 0,3.972 1.625,7.582 4.234,10.191 l 0.024,0 c 2.609,2.609 6.211,4.234 10.168,4.234 l 6.039,0 c 3.957,0 7.554,-1.625 10.168,-4.234 2.625,-2.621 4.254,-6.234 4.261,-10.191 l 0,-1.043 1.723,0 c 3.957,-0.004 7.567,-1.633 10.191,-4.258 2.61,-2.61 4.231,-6.211 4.231,-10.168 l 0,-6.039 c 0,-3.957 -1.621,-7.555 -4.231,-10.168 -2.621,-2.625 -6.234,-4.254 -10.191,-4.262 l -1.73,0 0,-42.668 75.504,0 0,1.731 c 0,3.957 1.621,7.558 4.234,10.171 l 0,0.02 c 2.609,2.609 6.219,4.23 10.191,4.23 l 6.035,0 c 3.973,0 7.583,-1.621 10.192,-4.23 2.609,-2.613 4.234,-6.223 4.234,-10.191 l 0,-1.727 1.043,0 c 3.957,-0.004 7.571,-1.633 10.192,-4.258 2.613,-2.609 4.234,-6.211 4.234,-10.168 l 0,-6.039 c 0,-3.957 -1.625,-7.558 -4.234,-10.168 -2.621,-2.625 -6.231,-4.258 -10.192,-4.261 l -1.043,0 0,-1.723 c 0,-3.957 -1.629,-7.567 -4.258,-10.192 -2.609,-2.609 -6.211,-4.23 -10.168,-4.23 l -6.035,0 c -3.957,0 -7.558,1.621 -10.172,4.23 -2.625,2.622 -4.253,6.235 -4.261,10.192 l 0.004,1.726 -75.5,0 0,-47.832 125.859,0 0,1.731 c 0,3.957 1.621,7.558 4.234,10.168 l 0.02,0.023 c 2.613,2.61 6.211,4.231 10.168,4.231 l 6.043,0 c 3.969,0 7.574,-1.621 10.191,-4.235 2.61,-2.609 4.231,-6.218 4.231,-10.187 l 0,-1.727 1.047,0 c 3.968,0 7.578,-1.625 10.187,-4.238 l 0,-0.02 c 2.613,-2.613 4.234,-6.21 4.234,-10.167 l 0,-6.04 c 0,-3.957 -1.621,-7.558 -4.234,-10.171 -2.621,-2.622 -6.23,-4.254 -10.187,-4.258 l -1.043,0 0,-1.723 c -0.004,-3.957 -1.633,-7.566 -4.258,-10.191 -2.613,-2.614 -6.211,-4.235 -10.168,-4.235 l -6.043,0 c -3.957,0 -7.555,1.625 -10.168,4.235 -2.625,2.625 -4.254,6.23 -4.258,10.191 l 0,1.727 -125.855,0 0,-47.832 -5.161,0 0,52.992 136.176,0 -0.004,-6.887 c 0.008,-5.09 4.176,-9.266 9.27,-9.266 l 6.043,0 c 5.094,0 9.262,4.176 9.265,9.266 l 0,6.887 6.204,-0.004 c 5.086,0.004 9.261,4.172 9.261,9.269 l 0,6.04 c 0,5.093 -4.175,9.261 -9.261,9.265 l -6.207,0 0,6.887 c 0,5.094 -4.168,9.262 -9.262,9.262 l -6.043,0 c -5.094,0 -9.262,-4.168 -9.262,-9.262 l 0,-6.891 -136.18,0 0,58.153 85.821,0 0,-6.887 c 0.004,-5.09 4.172,-9.266 9.269,-9.266 l 6.035,0 c 5.094,0 9.266,4.176 9.266,9.266 l 0,6.883 6.203,0 c 5.09,0.004 9.266,4.175 9.266,9.269 l 0,6.039 c 0,5.094 -4.176,9.266 -9.266,9.266 l -6.203,0 0,6.887 c 0,5.089 -4.172,9.261 -9.266,9.261 l -6.035,0 c -5.097,0 -9.265,-4.168 -9.265,-9.261 l 0,-6.887 -85.825,0 0,52.988 6.891,-0.004 c 5.09,0.004 9.266,4.176 9.266,9.27 l 0,6.039 c 0,5.094 -4.176,9.265 -9.266,9.265 l -6.887,0 0,6.204 c -0.004,5.089 -4.172,9.265 -9.265,9.265 l -6.039,0 c -5.094,0 -9.266,-4.176 -9.266,-9.265 l 0,-6.204 -6.887,0 c -5.093,0 -9.265,-4.171 -9.265,-9.265 l 0,-6.039 c 0,-5.094 4.168,-9.266 9.265,-9.266 l 6.887,0 0,-52.988 -85.82,0 0,6.887 c 0,5.093 -4.172,9.261 -9.266,9.261 l -6.035,0 c -5.0977,0 -9.2657,-4.172 -9.2657,-9.261 l 0,-6.887 -6.207,0 c -5.0898,0 -9.2617,-4.172 -9.2617,-9.266 l 0,-6.039 c 0,-5.094 4.1719,-9.265 9.2617,-9.269 l 6.2031,0 0,-6.883 c 0.0039,-5.09 4.1719,-9.266 9.2696,-9.266 l 6.035,0 c 5.094,0 9.266,4.176 9.27,9.266 l 0,6.887 85.816,0 0,-58.153 -136.1796,0 0,6.891 c 0,5.094 -4.1641,9.262 -9.2617,9.262 l -6.0391,0 c -5.0938,0 -9.2617,-4.168 -9.2617,-9.262 l 0,-6.887 -6.2071,0 c -5.0898,-0.004 -9.2656,-4.172 -9.2656,-9.265 l 0,-6.04 c 0,-5.097 4.1758,-9.265 9.2656,-9.269 l 6.2032,0.004 0,-6.887 c 0.0039,-5.09 4.1718,-9.266 9.2656,-9.266 l 6.0391,0 c 5.0976,0 9.2617,4.176 9.2695,9.266 l -0.0039,6.887 136.1757,0 0,-52.992 -5.156,0 z m 11.187,0 0,59.023 -148.1833,0 0,-12.812 c 0,-1.579 -1.2851,-2.868 -2.8633,-2.868 l -6.7773,0 c -1.5781,0 -2.8633,1.289 -2.8633,2.868 l 0,12.812 -12.8633,0 c -1.5703,0 -2.8672,1.285 -2.8672,2.863 l 0,6.782 c 0,1.574 1.2852,2.863 2.8672,2.863 l 12.8633,0 0,12.808 c 0,1.579 1.2852,2.868 2.8633,2.868 l 6.7773,0 c 1.5782,0 2.8633,-1.293 2.8633,-2.868 l 0,-12.808 148.1833,0 0,70.211 -97.828,0 0,-12.813 c 0,-1.574 -1.285,-2.863 -2.863,-2.863 l -6.777,0 c -1.579,0 -2.8637,1.285 -2.8637,2.863 l 0,12.813 -12.8672,0 c -1.5703,0 -2.8594,1.289 -2.8594,2.863 l 0,6.777 c 0,1.579 1.2852,2.864 2.8594,2.864 l 12.8672,0 0,12.812 c 0,1.578 1.2847,2.863 2.8637,2.863 l 6.777,0 c 1.578,0 2.863,-1.289 2.863,-2.863 l 0,-12.812 97.828,0 0,65 -12.812,0 c -1.571,0 -2.86,1.285 -2.86,2.863 l 0,6.777 c 0,1.578 1.286,2.868 2.86,2.868 l 12.812,0 0,12.863 c 0,1.574 1.285,2.863 2.864,2.863 l 6.781,0 c 1.574,0 2.859,-1.293 2.859,-2.863 l 0,-12.863 12.817,0 c 1.578,0 2.863,-1.29 2.863,-2.868 l 0,-6.777 c 0,-1.578 -1.289,-2.863 -2.863,-2.863 l -12.817,0 0,-65 97.828,0 0,12.812 c 0,1.574 1.285,2.863 2.868,2.863 l 6.777,0 c 1.574,0 2.863,-1.285 2.863,-2.863 l 0,-12.812 12.863,0 c 1.579,0 2.864,-1.285 2.864,-2.864 l 0,-6.777 c 0,-1.574 -1.293,-2.863 -2.864,-2.863 l -12.863,0 0,-12.813 c 0,-1.578 -1.289,-2.863 -2.863,-2.863 l -6.777,0 c -1.583,0 -2.868,1.289 -2.868,2.863 l 0,12.813 -97.828,0 0,-70.211 148.188,0 0,12.808 c 0,1.575 1.285,2.868 2.859,2.868 l 6.781,0 c 1.578,0 2.864,-1.289 2.864,-2.868 l 0,-12.808 12.863,0 c 1.578,0 2.863,-1.289 2.863,-2.863 l 0,-6.782 c 0,-1.578 -1.293,-2.863 -2.863,-2.863 l -12.863,0 0,-12.812 c 0,-1.579 -1.286,-2.868 -2.864,-2.868 l -6.781,0 c -1.574,0 -2.859,1.289 -2.859,2.868 l 0,12.812 -148.188,0 0,-59.023 -12.504,0"
         inkscape:connector-curvature="0"
         id="path18"
         style="fill:#b99505;fill-opacity:1;fill-rule:evenodd;stroke:none" /><path
         d="m 42.3516,115.867 c 3.7422,3.875 7.4101,6 9.3476,4.129 1.8906,-1.82 -0.4648,-5.723 2.5781,-8.656 1.8282,-1.774 4.2032,-1.938 6.0196,-0.047 2.3281,2.41 0.2109,5.875 -1.6758,7.691 -3.3516,3.239 -14.2734,9.539 -25.9023,-0.093 -1.875,-1.52 -3.043,-2.418 -3.5118,-2.477 -2.1562,-0.242 -5.0898,2.691 -5.6992,2.059 -1.0586,-1.098 -1.2617,-1.411 -0.2656,-2.371 l 2.4648,-2.375 c 0.8868,-0.86 0.0742,-1.7 -2.7968,-4.676 L 11.0547,96.7773 C 9.19531,94.8477 7.83594,95.9531 7.57422,96.2109 5.53516,97.9766 5.12109,98.0703 4.71484,97.6484 3.75781,96.6562 3.55469,96.4492 4.02344,95.9922 c 2.09375,-2.0234 4.39844,-4.043 6.64846,-6.2188 2.3047,-2.2226 4.4062,-4.4531 6.5,-6.4765 1.2539,-1.2149 1.5664,-1.1055 2.5234,-0.1094 0.4063,0.418 0.1914,0.9297 -2.4297,3.6641 -0.2656,0.25 -1.4218,1.5703 0.4453,3.5 l 15.5391,16.0894 6.1211,-5.918 c 0.7383,-0.7066 0.8398,-0.8082 2.0547,0.446 1.1133,1.152 1.3086,1.672 1.1015,1.875 l -6.6015,6.375 6.4258,6.648 z M 35.7617,75.4336 c -1.6953,-2.0938 -3.1445,-1.1094 -3.4258,-0.8789 -2.1875,1.582 -2.6093,1.6406 -2.9765,1.1914 -0.8711,-1.0781 -1.0547,-1.3008 -0.543,-1.7188 2.2656,-1.8281 4.7344,-3.6406 7.168,-5.6093 2.4844,-2.0157 4.7695,-4.0547 7.0351,-5.8907 0.5117,-0.4101 0.6914,-0.1835 1.5664,0.8907 0.3633,0.4531 0.2149,0.8515 -1.7851,2.664 -0.2813,0.2266 -1.5469,1.4375 0.1445,3.5313 l 10.7031,13.2148 c 4.3907,5.4219 6.9571,8.0117 7.3243,8.4649 0.2734,0.3398 0.3007,1.0664 -0.0352,1.3437 -0.2852,0.2305 -4.3281,-0.1328 -13.3945,4.8672 -0.2149,0.082 -0.6094,-0.1719 -0.836,-0.4531 -0.4101,-0.5078 -0.539,-0.7774 -0.1211,-1.3086 2.1446,-2.6719 2.6172,-3.711 -0.2148,-7.207 L 35.7617,75.4336 z M 61.1562,108.18 c -1.875,-2.317 -1.5234,-5.696 0.7969,-7.575 2.3164,-1.8823 5.6992,-1.523 7.5742,0.793 1.8829,2.325 1.5274,5.7 -0.7929,7.582 -2.3203,1.875 -5.7032,1.524 -7.5782,-0.8 z M 77.2656,50.9531 c -2.1992,-3.5195 -5.4648,-3.7969 -8.3672,-1.9843 -5.4922,3.4335 -2.3867,11.707 0.4336,16.2148 3.0078,4.8164 8,10.8828 14.0547,7.1016 1.9727,-1.2344 4.5274,-4.2891 1.5977,-8.9805 L 77.2656,50.9531 z m 11.961,19.1446 c -1.4141,2.6796 -3.6719,4.6953 -6.2032,6.2773 -7.9062,4.9453 -18.8554,0.8789 -23.5273,-6.5898 -4.8594,-7.7813 -4.5195,-16.8516 3.8125,-22.0625 3.3398,-2.0821 7.0625,-2.8516 10.9023,-2.0704 -1.1054,-1.6328 -1.8281,-2.6562 -2.0586,-3.0234 -0.1171,-0.1836 0.1133,-0.5 0.3008,-0.6172 0.25,-0.1523 2.7461,-0.6875 11.9766,-4.4648 0.4101,-0.1719 0.8555,0.4062 1.0508,0.7187 0.2304,0.3672 0.3398,0.8164 -0.0586,1.1446 -2.418,2.0351 -2.7852,2.6914 -1.3946,4.914 l 17.1327,27.418 c 5.629,9.0117 6.652,9.4062 8.543,12.4297 0.231,0.375 -0.047,0.8906 -0.23,1.0039 -0.493,0.3125 -5.629,1.0273 -10.6097,3.3672 -3.0703,1.4062 -3.3906,1.4375 -3.9336,0.5703 -0.3867,-0.6172 -0.418,-0.9414 -0.1094,-1.1328 3.3281,-2.5078 3.4766,-3.375 0.9688,-7.3867 L 89.2266,70.0977 z M 129.09,38.9883 c 1.144,-0.4649 1.445,-0.5039 2.015,0.9101 1.395,3.4454 1.54,13.1289 -9.742,17.6797 -9.109,3.6875 -18.418,-1.2734 -21.9919,-10.1172 -2.1523,-5.332 -3.375,-17.1015 9.5199,-22.3164 10.941,-4.414 17.593,2.3321 17.972,3.2774 0.274,0.6758 -0.336,1.3125 -0.941,1.5586 -0.879,0.3515 -4.043,-3.7852 -10.793,-1.0586 -7.965,3.2187 -8.383,10.9258 -6.149,16.4609 0.106,0.2734 0.34,0.6524 0.735,1.4336 l 19.375,-7.8281 z m -18.11,10.3789 c 1.391,3.4453 5.219,7.4726 9.2,5.8633 3.578,-1.4453 4.433,-4.7735 3.043,-8.2188 -0.821,-2.0195 -1.586,-2.1836 -6.926,-0.0273 -1.82,0.7344 -3.547,1.5117 -5.317,2.3828 z m 47.508,-18.832 c -7.863,5.1914 -10.109,7.0273 -9.332,10.1328 0.742,2.9648 3.653,4.1172 6.41,3.4336 4.024,-1.0118 5.637,-5.3868 6.504,-8.8321 0.125,-0.4023 1.114,-0.6484 1.821,-0.8242 0.351,-0.0898 0.492,0.1758 0.562,0.457 0.106,0.4258 0.297,6.0039 0.809,8.0547 0.054,0.211 -0.071,0.6172 -0.285,0.6719 -1.5,0.5977 -5.317,2.4492 -9.415,3.4727 -6.144,1.5312 -13.738,-0.6289 -15.449,-7.4805 -2.836,-11.375 13.946,-12.1055 12.203,-19.0977 -1.199,-4.8046 -5.722,-3.9804 -6.359,-3.8242 -3.105,0.7774 -5.211,1.375 -7.742,8.9883 -0.106,0.1758 -0.777,0.4922 -1.27,0.6133 -0.633,0.164 -0.937,0.164 -0.972,0.0195 -0.317,-1.2734 -0.118,-6.5 -0.684,-8.7617 -0.051,-0.2109 0.371,-0.625 0.582,-0.6836 4.524,-1.125 7.113,-2.4492 9.805,-3.1172 6.566,-1.6367 14.429,-0.207 16.312,7.3516 0.883,3.5312 -0.414,7.3828 -3.5,9.4258 z m 64.289,-5.5508 c 1.239,-0.0664 1.532,-0.0078 1.614,1.5156 0.195,3.7148 -2.825,12.9102 -14.973,13.5469 -9.816,0.5117 -17,-7.1992 -17.5,-16.7266 -0.297,-5.7461 2.379,-17.27342 16.27,-17.99608 11.777,-0.6211 15.871,7.92578 15.925,8.94528 0.035,0.7266 -0.746,1.1289 -1.398,1.168 -0.945,0.043 -2.59,-4.8984 -9.863,-4.5156 -8.579,0.4453 -11.485,7.6015 -11.172,13.5625 0.015,0.2929 0.109,0.7226 0.226,1.5937 l 20.871,-1.0937 z m -20.5,3.914 c 0.192,3.7149 2.5,8.7657 6.789,8.543 3.852,-0.2031 5.746,-3.0742 5.547,-6.7812 -0.113,-2.1797 -0.789,-2.586 -6.535,-2.2813 -1.961,0.1016 -3.848,0.2734 -5.801,0.5195 z m 42.364,10.5899 c -0.164,2.7656 -0.094,5.3281 -0.321,7.8672 -0.05,0.6523 -0.425,0.6953 -1.074,0.6328 -1.238,-0.1055 -1.383,-0.1172 -1.508,-0.3477 -1.914,-3.1679 -4.898,-6.6406 -10.8,-11.0312 -0.133,-0.1602 -0.274,-0.2461 -0.204,-1.043 0.063,-0.7226 0.102,-1.1562 0.828,-1.0937 l 4.204,0.3671 1.804,-20.6015 c 0.45,-5.15236 4.621,-7.72268 10.934,-7.17189 6.746,0.59375 10.484,4.66409 10.434,5.24219 -0.04,0.4336 -0.711,1.4687 -1.149,1.4336 -0.219,-0.0195 -2.684,-1.918 -5.367,-2.1524 -5.004,-0.4375 -5.711,4.254 -6.02,7.8047 l -1.422,16.25 10.739,0.9375 c 1.011,0.0899 1.156,0.1016 1.004,1.8438 -0.137,1.5976 -0.399,2.082 -0.688,2.0586 l -11.394,-0.9961 z m 45.062,-17.7578 c 0.742,-2.5782 -0.898,-3.1993 -1.25,-3.3008 -2.547,-0.8828 -2.836,-1.1914 -2.676,-1.75 0.379,-1.332 0.457,-1.6133 1.09,-1.4336 2.801,0.8047 5.699,1.7891 8.711,2.6523 3.078,0.8828 6.059,1.586 8.856,2.3868 1.679,0.4843 1.742,0.8007 1.359,2.1328 -0.16,0.5625 -0.711,0.625 -4.391,-0.2735 -0.351,-0.1015 -2.07,-0.4453 -2.808,2.1367 l -5.145,17.9415 c 0.27,0.9101 1.52,4.207 3.621,4.8125 2.45,0.7031 3.368,-2.5079 7.43,-1.3438 2.586,0.7461 3.461,3.25 2.773,5.6328 -0.757,2.6563 -3.82,3.8242 -6.343,3.1055 -4.129,-1.1836 -6.524,-5.5117 -8.563,-8.9727 -0.719,2.5196 -1.07,4.5391 -1.574,6.293 -0.102,0.3477 -0.672,0.4883 -0.742,0.4688 -0.348,-0.1016 -2.367,-3.6329 -11.664,-8.1954 -0.188,-0.1289 -0.207,-0.5898 -0.106,-0.9375 0.18,-0.6328 0.328,-0.8906 0.996,-0.8515 3.422,0.2226 4.543,0.0156 5.782,-4.3125 l 4.644,-16.1914 z m 47.274,37.8593 c -0.832,1.8633 -3.672,8.2461 -13.516,3.8672 -2.598,-1.1562 -3.305,-1.7109 -6.852,-6.6367 -3.687,-5.1484 -4.355,-7.043 -3.437,-9.1015 0.887,-1.9961 2.89,-2.379 4.617,-1.6094 2.531,1.125 3.496,3.0664 2.406,5.5273 -0.328,0.7344 -1.851,1.6524 -2,1.9844 -0.531,1.1953 1.68,4.0977 2.879,4.6289 2.66,1.1836 6.18,0.4375 7.246,-1.9531 l 2.727,-6.1172 -8.598,-9.332 c -1.547,-1.7266 -4.035,-4.9063 -2.23,-8.961 1.836,-4.1289 5.621,-4.9219 9.547,-3.1797 3.457,1.5391 6.007,4.7618 7.336,8.2227 1.824,-2.2969 4.769,-2.832 7.296,-1.7031 4.122,1.8359 6.387,7.3164 5.914,8.3828 -0.121,0.2656 -1.281,0.5429 -1.484,0.4531 -0.93,-0.4102 -0.351,-2.0664 -2.144,-2.8672 -1.067,-0.4726 -1.649,0.3047 -2.008,1.1016 l -7.699,17.2929 z m -1.547,-19.2578 0.324,-0.7343 c 0.594,-1.3282 -2.106,-4.2071 -3.305,-4.7383 -2.465,-1.0977 -4.047,0.6679 -4.668,2.0664 -1.867,4.1875 -0.289,6.0078 4.36,10.7851 l 3.289,-7.3789 z m 17.312,36.7891 c -1.488,2.3359 -2.672,4.6133 -4.097,6.7227 -0.368,0.5468 -0.707,0.4023 -1.254,0.039 -1.024,-0.6953 -1.145,-0.7773 -1.145,-1.043 -0.137,-3.6914 -1.066,-8.1796 -4.101,-14.8789 -0.04,-0.207 -0.118,-0.3476 0.328,-1.0117 0.41,-0.6015 0.656,-0.9648 1.261,-0.5586 l 3.496,2.3594 11.567,-17.1445 c 2.891,-4.2813 7.785,-4.5078 13.035,-0.9649 5.617,3.7852 6.91,9.1563 6.59,9.6406 -0.246,0.3594 -1.344,0.9376 -1.703,0.6954 -0.18,-0.1211 -1.418,-2.9766 -3.653,-4.4844 -4.164,-2.8086 -7.054,0.9531 -9.046,3.9062 l -9.118,13.5235 8.93,6.0273 c 0.848,0.5703 0.969,0.6524 -0.012,2.1016 -0.894,1.3281 -1.363,1.625 -1.601,1.4648 l -9.477,-6.3945 z m 34.063,-9.2578 c 1.734,-2.0625 0.492,-3.2969 0.207,-3.5313 -1.965,-1.8476 -2.106,-2.2461 -1.731,-2.6953 0.891,-1.0547 1.074,-1.2812 1.578,-0.8594 2.231,1.8711 4.481,3.9493 6.875,5.9649 2.457,2.0547 4.895,3.914 7.129,5.7851 0.5,0.4219 0.313,0.6446 -0.578,1.7032 -0.375,0.4453 -0.793,0.3789 -2.953,-1.2422 -0.277,-0.2305 -1.711,-1.2461 -3.441,0.8203 l -10.93,13.0234 c -4.484,5.3438 -6.535,8.3555 -6.914,8.8047 -0.281,0.336 -0.988,0.5039 -1.324,0.2188 -0.278,-0.2344 -0.692,-4.2696 -7.328,-12.2188 -0.122,-0.1953 0.043,-0.625 0.281,-0.9023 0.422,-0.5039 0.664,-0.6797 1.262,-0.3672 3.031,1.5898 4.14,1.8594 7.035,-1.5899 l 10.832,-12.914 z m -27.301,31.1758 c 1.922,-2.2852 5.308,-2.5821 7.594,-0.6641 2.285,1.922 2.582,5.309 0.664,7.59 -1.922,2.289 -5.305,2.582 -7.59,0.668 -2.289,-1.922 -2.582,-5.309 -0.668,-7.5939 z m 63.383,-8.4453 c 4.687,4.6874 10.496,16.0742 0.968,25.5942 -9.472,9.476 -20.851,3.656 -25.539,-1.024 -4.683,-4.687 -10.5,-16.0663 -1.027,-25.5429 9.523,-9.5195 20.914,-3.7149 25.598,0.9727 z m -1.864,1.8593 c -5.043,-5.0429 -11.531,0.211 -16.062,4.7383 -4.582,4.5816 -9.832,11.0706 -4.789,16.1176 5.047,5.046 11.535,-0.207 16.066,-4.739 4.578,-4.578 9.832,-11.0661 4.785,-16.1169"
         inkscape:connector-curvature="0"
         id="path20"
         style="fill:#231f20;fill-opacity:1;fill-rule:evenodd;stroke:none" /><path
         d="m 133.164,470.535 c -3.637,12.895 -32.355,25.817 -48.3046,15.11 -0.0977,-0.086 -3.8242,-3.45 -3.8985,-3.415 -15.2773,4.786 -32.6797,-9.601 -30.1797,-25.324 0.5235,-3.297 2.9922,-8.504 4.3126,-12.246 0.1406,-0.453 -0.5938,-1.285 -0.9336,-0.922 -2.8985,3.082 -7.0469,7.153 -7.293,11.36 -8.3008,-21.266 4.8242,-46.543 20.4336,-62.164 0.1445,15.531 16.1836,24.613 27.9765,30.273 19.1797,9.621 2.8438,54.273 37.8867,47.328 z m -40.3085,-58.41 c 3.7578,-2.328 5.8906,-3.547 9.2035,-6.434 2.156,1.719 6.234,3.852 9.16,3.938 2.914,0.086 6.203,-0.731 9.832,-2.539 1.226,-0.063 0.711,-1.727 0.183,-1.789 -5.125,0.426 -11.894,-1.332 -15.148,-3.739 3.133,-4.292 8.476,-11.234 20.918,-17.683 3.008,1.523 5.121,3.922 10.684,2.008 1.046,-0.535 4.296,-2.469 3.734,-4.285 -0.426,-1.368 -2.375,1.113 -4.504,0.882 -4.047,-0.437 -4.332,-2.25 -7.16,-2.226 8.488,-8.016 15.457,-18.047 18.996,-31.07 2.547,-0.536 5.73,-0.446 11.098,-5.243 1.101,-1.129 0.05,-2.39 -0.231,-2.293 -2.809,1.032 -6.734,2.008 -9.082,1.504 5.258,-27.855 16.289,-40.625 23.074,-61.117 7.43,-22.426 11.422,-44.086 13.258,-64.973 1.941,-4.91 6.817,-4.144 10.531,-1.863 -3.453,27.063 -15.015,56.598 -22.289,83.027 -3.453,12.547 -4.226,25.528 -5.164,37.375 -0.953,12.02 -1.238,22.004 -1.152,32.747 -3.981,-0.442 -5.992,-3.407 -7.727,-6.75 -0.347,-0.668 -1.8,-0.649 -1.652,0.589 0.684,4.868 3.594,10.25 8.719,12.422 0.297,15.047 -1.649,22.637 -4.164,30.59 -4.504,2.531 -8.207,-4.922 -12.989,-7.906 -1.089,-0.68 -2.812,-0.137 -1.543,1.441 2.813,3.492 1.106,9.125 12.325,12.59 -3,10.66 -7.469,18.844 -11.465,25.067 -3.496,1.71 -9.672,-4.903 -11.418,-7.891 -2.52,-4.316 -5.578,12.621 7.492,13.082 -2.391,5.644 -10.32,15.289 -16.059,19.504 -14.558,2.375 -14.843,-11.969 -18.195,-23.203 -3.254,-10.918 -4.394,-23.348 -19.2655,-25.762 z m 85.8785,21.387 c 8.473,1.633 14.098,0.597 18.395,-7.153 2.113,-3.812 4.723,-4.308 9.012,-4.707 1.929,0.086 0.797,-2.406 -1.754,-3.761 -3.422,-1.821 -7.414,-1.149 -10.957,1.57 -3.688,2.836 -5.547,3.801 -9.762,2.957 3.543,-10.867 6.941,-27.367 7.18,-39.707 6.601,-1.484 11.375,-6.106 13.449,-13.672 l 0,0 c 0.797,-0.992 -0.793,-2.648 -1.813,-1.949 -3.898,3.73 -8.433,6.113 -11.382,6.148 -5.571,-76.461 17.242,-131.086 17.726,-178.058 -0.691,-16.727 -2.09,-33.418 -3.484,-50.145 2.761,-8.164 5.269,-12.312 7.597,-13.367 4.707,-2.07 4.36,9.516 8.356,11.523 -2.289,16.297 -4.059,33.946 -5.227,50.411 -0.914,53.773 10.086,71.14 12.715,113.679 -1.926,0.723 -4.648,-2.82 -5.996,-5.465 -0.859,-0.898 -2.742,0.372 -2.16,1.516 l 0,0 c -0.824,5.324 4.422,10.625 9.226,13.953 0.301,10.926 -0.425,22.36 1.973,36.57 -2.957,2.321 -6.105,-1.55 -9.277,-5.664 -1.328,-0.554 -2.321,1.204 -1.481,2.223 l 0,0 c 0.789,5.957 4.641,11.215 12.149,15.395 1.383,17.211 4.726,33.32 7.195,43.836 -2.191,3.015 -10.68,4.101 -16.934,-7.426 -3.531,2.258 -1.542,7.621 1.829,11.187 5.57,5.895 8.675,5.629 18.277,9.129 3.141,9.961 4.902,16.332 9.652,23.445 4.172,6.239 10.586,13.676 14.254,33.032 -12.652,-11.176 -26.539,-13.469 -38.965,-14.758 -6.64,-0.695 -14.57,-1.996 -17.961,-6.266 -0.671,-10.289 0.36,-17.55 1.727,-28.867 0.254,-1.238 -1.793,-2.199 -2.391,-1.062 l 0,0 c -4.226,5.843 -6.836,13.828 -8.093,22.351 -0.137,-0.172 -3.989,0.039 -4.215,0.067 -12.848,1.382 -26.176,14.054 -33.828,22.949 1.406,-22.004 9.168,-21.574 14.968,-39.914 z m -40.945,75.683 c 5.391,5.41 15.77,5.789 16.824,-3.297 0.778,-6.855 -6.191,-11.281 3.528,-21.664 5.523,8.246 27.507,8.368 28.945,5.575 0.531,-1.028 0.777,-1.704 -0.145,-1.844 -7.015,-1.067 -16.406,-6.18 -15.175,-9.567 8.113,-10.031 18.785,-18.324 28.8,-20.023 12.45,24.945 57.176,-1.691 75.223,48.875 1.488,3.461 9.535,1.895 11.914,-0.586 0.203,6.426 -0.066,13.188 -1.73,19.699 -5.719,4.231 -14.766,8.621 -22.672,7.27 -5.918,-0.977 -11.637,-3.258 -17.68,-3.766 -1.258,-0.086 -1.703,1.692 -0.527,2.156 5.191,2.032 9.894,5.032 15.168,7.063 6.894,2.621 16.824,1.019 23.39,-1.898 -1.582,7.824 -6.757,17.562 -12.418,23.843 -7.093,1.188 -11.746,-2.203 -17.504,-5.074 -1.093,-0.551 -2.269,0.719 -1.582,1.648 3.375,7.372 9.336,9.512 13.911,10.102 -14.805,15.941 -43.231,14.336 -57.383,-1.223 -0.446,-0.468 -1.297,-0.55 -1.821,-0.129 -21.05,17.586 -47.894,9.43 -59.898,-11.5 14.07,3.891 24.898,-2.703 34.754,-11.371 0.891,-0.847 -0.328,-2.328 -1.422,-1.777 -12.285,6.043 -24.91,11.094 -37.848,3.738 -4.527,-11.066 -8.468,-24.199 -4.652,-36.25 z m 188.695,-101.48 c -3.066,-1.262 -6.32,-3.52 -9.699,-6.637 -3.84,3.395 -9.117,3.387 -15.879,-1.113 -1.136,-0.176 -0.711,-1.922 -0.23,-1.965 4.711,0.863 9.273,1.516 12.191,-0.852 -3.898,-4.218 -14.051,-16.656 -18.148,-22.785 -2.797,1.43 -6.219,1.699 -8.395,-1.535 -2.398,-3.566 -4.207,-1.34 -6.472,-1.453 -1.414,-0.07 0.757,-2.566 2.453,-3.449 5.324,-2.785 7.636,3.73 9.722,2.316 -6.343,-10.012 -3.675,-16.574 -17.57,-35.113 -2.516,-0.703 -7.137,-0.59 -12.598,-6.086 -1.125,-1.293 -0.097,-2.594 0.172,-2.488 2.832,1.277 7.567,2.386 9.883,1.965 -5.016,-19.618 -16.371,-42.243 -23.863,-63.168 -9.977,-27.848 -14.149,-52.997 -14.797,-75.887 -2.031,-5.445 -7.195,-4.785 -11.141,-2.379 3.36,38.726 20.848,81.348 26.344,108.824 3.758,18.805 0.906,30.586 6.102,59.199 3.89,-0.234 5.074,-3.117 6.648,-6.629 0.313,-0.703 1.754,-0.609 1.633,0.704 -0.469,5.25 -2.481,11.035 -7.383,13.078 1.387,11.793 3.719,24.664 7.078,35.019 6.555,-0.715 6.711,-6.535 10.051,-10.051 0.746,-0.785 2.125,0.118 1.703,1.047 -2.078,1.957 -0.25,9.914 -9.461,15.711 2.949,11.324 7.809,20.543 11.516,25.512 3.344,0.488 9.183,-5.816 9.379,-7.84 0.797,-0.609 1.988,0.293 1.57,1.188 l 0,0 c -1.496,3.285 -3.488,10.847 -7.367,12.195 2.629,6.223 6.461,10.785 10.726,15.953 25.754,7.738 14.313,-38.676 35.832,-43.281 z m -39.714,52.137 c 7.164,12.808 33.828,29.738 52.203,19.492 0.113,-0.047 4.316,-2.879 4.429,-2.84 16.219,6.5 36.457,-7.602 35.102,-24.82 -0.34,-3.614 -2.527,-9.477 -3.676,-13.649 -0.094,-0.465 0.742,-1.332 1.094,-0.922 2.898,3.567 7.113,8.356 7,12.91 10.953,-22.257 -1.289,-50.746 -17.035,-69.011 -1.477,16.808 -19.754,25.285 -33.078,30.355 -22.575,6.156 -4.567,53.418 -46.039,48.485"
         inkscape:connector-curvature="0"
         id="path22"
         style="fill:#d7d7d7;fill-opacity:1;fill-rule:nonzero;stroke:none" /><path
         d="m 343.801,471.121 c -0.625,-0.305 -0.965,-0.957 -0.582,-1.621 8.402,-5.527 16.836,-16.441 16.804,-31.957 -2.91,-2.258 -18.343,-0.613 -21.66,5.051 -0.773,0.601 -1.98,-0.324 -1.574,-1.239 2.016,-11.484 19.016,-12.238 24.828,-11.585 6.071,-5.653 3.692,-18.145 4.582,-28.864 0.246,-0.625 1.113,-0.718 1.59,-0.281 0.219,0.176 0.359,0.434 0.387,0.73 l 0,0 c 2.527,10.618 4.57,29.657 0.254,42.27 -0.746,6.262 -13.586,26.652 -24.629,27.496 z M 227.203,192.199 c -1.769,-1.109 -2.828,-2.64 -2.351,-3.394 0.476,-0.762 2.265,-1.528 4.043,-0.418 1.769,1.109 2.867,3.691 2.39,4.449 -0.476,0.762 -2.308,0.473 -4.082,-0.637 z m -34.836,28.574 c 1.664,-1.023 2.66,-2.445 2.223,-3.16 -0.442,-0.711 -2.11,-1.441 -3.778,-0.414 -1.664,1.024 -2.707,3.43 -2.269,4.145 0.441,0.711 2.156,0.457 3.824,-0.571 z m 17.223,-78.308 c -1.098,3.168 -1.485,8.652 0.629,11.726 1.242,1.797 5.726,2.18 3.929,-1.074 -1.703,-3.09 1.086,-8.972 2.532,-9.211 0,0 0,0 0.031,-0.008 0.125,-0.019 0.172,-0.269 0.219,-0.464 1.164,-5.043 -5.239,-7.254 -7.34,-0.969 z m -93.035,289.156 c 13.785,-10.797 21.425,-20.637 26.781,-30.258 9.062,-16.265 12.309,-32.238 6.965,-28.933 -2.813,1.882 -2.356,5.386 -4.348,12.531 -2.726,9.789 -12.074,27.297 -22.445,37.84 -5.996,6.101 -9.297,7.875 -8.024,8.84 0.446,0.336 0.707,0.261 1.071,-0.02 z m -38.2191,46.414 0,0 c 0.6797,0.59 1.8477,-0.547 1.3789,-1.293 -5.5,-10.621 -9.7187,-18.504 -10.8984,-31.355 -0.9922,-3.172 15.75,-3.602 20.6563,1.742 0.6445,0.629 1.8711,-0.055 1.6289,-0.965 -7.1524,-10.297 -24.1328,-7.496 -22.668,-8.102 0,-0.429 -0.043,-0.82 0.0039,-0.968 l 0,0 c 0.0039,-0.465 0.0273,-0.813 0.0156,-1.086 0.0586,-8.61 -0.0351,-16.996 -2.0117,-25.254 -0.3008,-0.992 -1.7031,-0.793 -1.875,0.129 l 0,0 c -2.2695,10.773 -4.8516,22.058 -3.9687,32.875 1.0781,11.914 7.832,27.902 17.7382,34.277 z M 270.391,363.918 c 5.171,18.441 13.992,35.105 20.093,44.598 2.371,3.687 17.93,21.672 15.641,9.394 -0.703,-3.64 -4.176,-3.273 -9.672,-8.687 -7.562,-7.453 -14.644,-19.864 -20.625,-34.961 -2.172,-5.473 -3.109,-8.938 -3.871,-10.68 -0.852,-1.949 -2.199,-1.922 -1.566,0.336 z m -60.758,21.602 c -1.184,5.23 0.66,3.433 2.258,0.707 8.531,-14.567 2.07,-58.661 0.386,-74.821 -1.863,-18.054 0.653,-31.968 1.192,-49.648 -0.004,-0.031 -0.004,-0.031 -0.004,-0.031 -0.008,-0.7 -0.699,-0.989 -1.051,-0.399 l 0,0 c -6.711,18.035 -6,43.106 -4.289,54.895 -10.48,2.445 -17.418,19.566 -9.77,13.589 3.188,-2.488 5.598,-6.351 10.043,-6.019 3.063,17.145 5.329,43.68 1.235,61.727 z m 0.277,175.98 0,0 c 11.535,-10.664 14.813,-32.781 12.875,-50 -0.262,-2.312 0.442,-4.211 1.793,-5.379 1.738,-1.5 13.391,0.551 16.598,2.129 1.101,0.547 1.765,-0.664 0.578,-2.445 -2.551,-3.817 -17.121,-7.215 -20.879,-5.262 -1.699,-9.508 -5.145,-14.5 -10.691,-20.227 -0.774,-0.796 -2.172,-0.16 -1.899,0.973 2.727,10.399 6.836,24.363 5.801,35.246 -2.379,6.664 -14.488,6.188 -23.066,2.348 -5.598,-2.5 6.988,13.621 23.41,5.992 -0.473,12.547 -2.692,23.672 -6.352,35.453 l 0,0 c -0.348,1.051 1,1.942 1.832,1.172"
         inkscape:connector-curvature="0"
         id="path24"
         style="fill:#173a79;fill-opacity:1;fill-rule:nonzero;stroke:none" /><path
         d="m 417.5,301.195 0,324.414 -403.6016,0 0,-324.414 c 0,-111.148 90.6486,-201.8005 201.8006,-201.8005 111.149,0 201.801,90.6525 201.801,201.8005 z m 9.848,334.266 0,-334.266 c 0,-116.57 -95.075,-211.6481 -211.649,-211.6481 -116.574,0 -211.65212,95.0781 -211.65212,211.6481 0,111.422 -0.00391,222.852 -0.00391,334.266 l 423.30503,0"
         inkscape:connector-curvature="0"
         id="path26"
         style="fill:#231f20;fill-opacity:1;fill-rule:evenodd;stroke:none" /></g></g></svg>