<?xml version="1.0" encoding="utf-8" standalone="no" ?>
<!--Generated by Edraw, SVGExporter, v1.0-->
<svg version="1.1" xmlns="http://www.w3.org/2000/svg" xmlns:xlink="http://www.w3.org/1999/xlink" xmlns:ed="http://www.edrawsoft.com/schema/svg" ed:version="version 5" viewBox="0 0 560 340">
    <style type="text/css">
        <![CDATA[
            .st1 {fill:#FFFFFF;stroke:#006FBD; stroke-width:1.5; stroke-linejoin:bevel; }
            .st2 {fill:#000000;}
            .st3 {fill:none;stroke:#000000; stroke-width:2; stroke-linejoin:bevel; }
            .st4 {fill:#000000;stroke:#000000; stroke-width:2; stroke-linejoin:bevel; }
            .st5 {fill:#FFFFFF;}
            .st6 {fill:#FFFFFF;stroke:#000000; stroke-width:2; stroke-linejoin:bevel; }
            .st7 {fill:url(#grad1);stroke:#545454; stroke-width:1; stroke-linejoin:bevel; }
            .st8 {fill:none;stroke:#72329D; stroke-width:1.5; stroke-linejoin:bevel; marker-start:url(#mk1); }
            .st9 {fill:#FFFFFF;stroke:#72329D; stroke-width:1.5; stroke-linejoin:bevel; marker-start:url(#mk1); }
            .st10 {fill:none;stroke:#006FBD; stroke-width:1; stroke-linejoin:bevel; stroke-dasharray:2,5; }
            .st11 {fill:#FFFFFF;stroke:#006FBD; stroke-width:1; stroke-linejoin:bevel; stroke-dasharray:2,5; }
            .st12 {fill:none;stroke:#FF1418; stroke-width:1; stroke-linejoin:bevel; stroke-dasharray:2,5; }
            .st13 {fill:#FFFFFF;stroke:#FF1418; stroke-width:1; stroke-linejoin:bevel; stroke-dasharray:2,5; }
            .st14 {fill:none;stroke:#545454; stroke-width:1; stroke-linejoin:bevel; }
            .st15 {fill:#FFFFFF;stroke:#545454; stroke-width:1; stroke-linejoin:bevel; }
            .st16 {fill:none;stroke:#3C5C74; stroke-width:1; stroke-linejoin:bevel; }
            .st17 {fill:none;stroke:#FF1418; stroke-width:1.5; stroke-linejoin:bevel; marker-end:url(#mk3); }
            .st18 {fill:#FFFFFF;stroke:#FF1418; stroke-width:1.5; stroke-linejoin:bevel; marker-end:url(#mk3); }
            .st19 {fill:none;stroke:#006FBD; stroke-width:1.5; stroke-linejoin:bevel; marker-end:url(#mk2); }
            .st20 {fill:#FFFFFF;stroke:#006FBD; stroke-width:1.5; stroke-linejoin:bevel; marker-end:url(#mk2); }
        ]]>

    </style>
    <defs id="Gradients">
        <linearGradient id="grad1" gradientUnits="userSpaceOnUse" x1="0.00" y1="0.00" x2="0.00" y2="1.00">
            <stop offset="0.00" stop-color="#FCFCFC" stop-opacity="1.00" />
            <stop offset="0.50" stop-color="#F5F5F5" stop-opacity="1.00" />
            <stop offset="1.00" stop-color="#EEEEEE" stop-opacity="1.00" />
        </linearGradient>
    </defs>
    <defs id="Markers">
        <marker id="mk1" orient="auto" overflow="visible">
            <path d="M-0.00,-0.00 L9.00,4.50 L9.00,-4.50 z " style="fill:#72329D; stroke:none;" />
        </marker>
        <marker id="mk2" orient="auto" overflow="visible">
            <path d="M-0.00,-0.00 L-9.00,4.50 L-9.00,-4.50 z " style="fill:#006FBD; stroke:none;" />
        </marker>
        <marker id="mk3" orient="auto" overflow="visible">
            <path d="M-0.00,-0.00 L-9.00,4.50 L-9.00,-4.50 z " style="fill:#FF1418; stroke:none;" />
        </marker>
    </defs>
    <defs id="Filters" />
    <g>
        <title>Layer-1</title>
        <g id="115" transform="translate(223.62,135.07) rotate(45.00,56.49,84.93)">
            <path d="M112.98,169.86 L112.98,0.00 L0.00,0.00 L0.00,169.86 L112.98,169.86 z" class="st1" />
        </g>
        <g id="125" transform="translate(64.50,166.00) rotate(-45.00,189.50,0.00)">
            <path d="M0.00,0.00 L379.01,0.00 " class="st3" />
        </g>
        <g id="104" transform="translate(20.00,200.00)">
            <path d="M-0.00,-0.00 L400.00,-0.00 " class="st3" />
        </g>
        <g id="106" transform="translate(340.00,72.00)">
            <path d="M0.00,0.00 L108.00,0.00 L108.00,48.00 L0.00,48.00 L0.00,0.00 z" style="visibility:hidden" />
            <text>
                <tspan x="18.00" y="20.00" style="font-family:Arial;fill:#000000;font-size:16pt;">imaging </tspan>
                <tspan x="34.00" y="44.00" style="font-family:Arial;fill:#000000;font-size:16pt;">axis</tspan>
            </text>
        </g>
        <g id="108" transform="translate(420.00,176.00)">
            <path d="M0.00,0.00 L108.00,0.00 L108.00,48.00 L0.00,48.00 L0.00,0.00 z" style="visibility:hidden" />
            <text>
                <tspan x="5.00" y="20.00" style="font-family:Arial;fill:#000000;font-size:16pt;">translation </tspan>
                <tspan x="34.00" y="44.00" style="font-family:Arial;fill:#000000;font-size:16pt;">axis</tspan>
            </text>
        </g>
        <g id="124" transform="translate(88.00,160.50)">
            <path d="M0.00,0.00 L40.00,0.00 L40.00,40.00 L0.00,40.00 L0.00,0.00 z" style="visibility:hidden" />
            <text>
                <tspan x="14.00" y="28.50" style="font-family:Arial;fill:#72329D;font-size:16pt;font-weight:bold">c</tspan>
            </text>
        </g>
        <g id="126" transform="translate(35.15,180.00) rotate(45.00,84.85,0.00)">
            <path d="M0.00,0.00 L169.71,0.00 " class="st8" />
        </g>
        <g id="129" transform="translate(263.43,180.00) rotate(45.00,56.57,0.00)">
            <path d="M0.00,0.00 L113.14,0.00 " class="st10" />
        </g>
        <g id="130" transform="translate(243.41,199.97) rotate(44.96,56.57,0.00)">
            <path d="M0.00,0.00 L113.13,0.00 " class="st10" />
        </g>
        <g id="131" transform="translate(223.43,220.00) rotate(45.00,56.57,0.00)">
            <path d="M0.00,0.00 L113.14,0.00 " class="st10" />
        </g>
        <g id="134" transform="translate(243.43,160.00) rotate(45.00,56.57,0.00)">
            <path d="M0.00,0.00 L113.14,0.00 " class="st12" />
        </g>
        <g id="137" transform="translate(204.14,239.13) rotate(44.11,56.22,0.00)">
            <path d="M0.00,0.00 L112.44,0.00 " class="st10" />
        </g>
        <g id="138" transform="translate(183.46,259.97) rotate(44.96,56.57,0.00)">
            <path d="M0.00,0.00 L113.13,0.00 " class="st10" />
        </g>
        <g id="139" transform="translate(203.43,160.00) rotate(45.00,56.57,0.00)">
            <path d="M0.00,0.00 L113.14,0.00 " class="st12" />
        </g>
        <g id="140" transform="translate(163.43,160.00) rotate(45.00,56.57,0.00)">
            <path d="M0.00,0.00 L113.14,0.00 " class="st12" />
        </g>
        <g id="141" transform="translate(123.43,160.00) rotate(45.00,56.57,0.00)">
            <path d="M0.00,0.00 L113.14,0.00 " class="st12" />
        </g>
        <g id="142" transform="translate(83.43,160.00) rotate(45.00,56.57,0.00)">
            <path d="M0.00,0.00 L113.14,0.00 " class="st12" />
        </g>
        <g id="143" transform="translate(220.00,200.00)">
            <path d="M60.00,0.00 A60.00 60.00 0.00 0 0 42.43,-42.43 " class="st14" />
            <path d="M0.00,0.00 L74.00,0.00 z" style="visibility:hidden" />
            <path d="M0.00,-0.00 L52.33,-52.33 z" style="visibility:hidden" />
            <text transform="translate(39.50,-8.00)">
                <tspan x="-6.50" y="0.00" style="font-family:Arial;fill:#000000;font-size:16pt;">α</tspan>
            </text>
        </g>
        <g id="144" transform="translate(300.00,120.00) rotate(180.00,0.00,0.00)">
            <path d="M60.00,0.00 A60.00 60.00 0.00 0 0 42.43,-42.43 " class="st14" />
            <path d="M0.00,0.00 L74.00,0.00 z" style="visibility:hidden" />
            <path d="M0.00,-0.00 L52.33,-52.33 z" style="visibility:hidden" />
            <text transform="translate(40,-20.00) rotate(180.00,0,0)">
                <tspan x="-7.50" y="0.00" style="font-family:Arial;fill:#000000;font-size:16pt;">α</tspan>
            </text>
        </g>
        <g id="146" transform="translate(160.11,88.00)">
            <g id="122" transform="translate(-0.00,0.00)">
                <path d="M0.00,0.00 L40.00,0.00 L40.00,40.00 L0.00,40.00 L0.00,0.00 z" style="visibility:hidden" />
                <text>
                    <tspan x="11.89" y="28.00" style="font-family:Arial;fill:#FF1418;font-size:16pt;">d&apos;</tspan>
                </text>
            </g>
            <g id="145" transform="translate(8.89,6.00)">
                <path d="M0.00,0.00 L40.00,0.00 L40.00,40.00 L0.00,40.00 L0.00,0.00 z" style="visibility:hidden" />
                <text>
                    <tspan x="16.00" y="24.50" style="font-family:Arial;fill:#FF1418;font-size:10pt;">z</tspan>
                </text>
            </g>
        </g>
        <g id="147" transform="translate(195.56,157.50)">
            <g id="148">
                <path d="M0.00,0.00 L40.00,0.00 L40.00,40.00 L0.00,40.00 L0.00,0.00 z" style="visibility:hidden" />
                <text>
                    <tspan x="14.44" y="28.50" style="font-family:Arial;fill:#006FBD;font-size:16pt;">d</tspan>
                </text>
            </g>
            <g id="149" transform="translate(10.89,6.00)">
                <path d="M0.00,0.00 L40.00,0.00 L40.00,40.00 L0.00,40.00 L0.00,0.00 z" style="visibility:hidden" />
                <text>
                    <tspan x="15.56" y="25.00" style="font-family:Arial;fill:#006FBD;font-size:10pt;">z</tspan>
                </text>
            </g>
        </g>
        <g id="150" transform="translate(60.00,120.00) rotate(180.00,120.11,0.00)">
            <path d="M0.00,0.00 L240.22,0.00 " class="st17" />
        </g>
        <g id="151" transform="translate(155.10,180.11) rotate(135.00,85.01,0.00)">
            <path d="M0.00,0.00 L170.02,0.00 " class="st19" />
        </g>
    </g>
</svg>
