<?xml version="1.0" encoding="utf-8" standalone="no" ?>
<!--Generated by Edraw, SVGExporter, v1.0-->
<svg version="1.1" xmlns="http://www.w3.org/2000/svg" xmlns:xlink="http://www.w3.org/1999/xlink" xmlns:ed="http://www.edrawsoft.com/schema/svg" ed:version="version 5" viewBox="0 0 579.813 440.376">
    <style type="text/css">
        <![CDATA[
            .st1 {fill:rgba(165,165,165,0.5);stroke:#000000; stroke-width:1; stroke-linejoin:bevel; }
            .st2 {fill:none;stroke:#000000; stroke-width:1; stroke-linejoin:bevel; }
            .st3 {fill:#FFFFFF;}
            .st4 {fill:#FFFFFF;stroke:#000000; stroke-width:1; stroke-linejoin:bevel; }
            .st5 {fill:none;stroke:#000000; stroke-width:1; stroke-linejoin:bevel; marker-start:url(#mk1); marker-end:url(#mk2); }
            .st6 {fill:#FFFFFF;stroke:#000000; stroke-width:1; stroke-linejoin:bevel; marker-start:url(#mk1); marker-end:url(#mk2); }
            .st7 {fill:url(#grad1);stroke:#545454; stroke-width:1; stroke-linejoin:bevel; }
            .st8 {fill:none;stroke:#3C5C74; stroke-width:1; stroke-linejoin:bevel; }
        ]]>

    </style>
    <defs id="Gradients">
        <linearGradient id="grad1" gradientUnits="userSpaceOnUse" x1="0.00" y1="0.00" x2="0.00" y2="1.00">
            <stop offset="0.00" stop-color="#FCFCFC" stop-opacity="1.00" />
            <stop offset="0.50" stop-color="#F5F5F5" stop-opacity="1.00" />
            <stop offset="1.00" stop-color="#EEEEEE" stop-opacity="1.00" />
        </linearGradient>
    </defs>
    <defs id="Markers">
        <marker id="mk1" orient="auto" overflow="visible">
            <path d="M-0.00,-0.00 L10.67,-2.67 L10.67,2.67 z " style="fill:#000000; stroke:none;" />
        </marker>
        <marker id="mk2" orient="auto" overflow="visible">
            <path d="M-0.00,-0.00 L-10.67,2.67 L-10.67,-2.67 z " style="fill:#000000; stroke:none;" />
        </marker>
    </defs>
    <defs id="Filters" />
    <g>
        <title>Layer-1</title>
        <g id="177" transform="translate(136.16,61.34) translate(0,278.69) scale(1,-1)">
            <path d="M0.00,7.81 C0.00,7.81 0.00,278.69 0.00,278.69 C30.00,269.81 291.00,268.81 320.50,278.69 C320.50,278.69 320.50,8.31 320.50,8.31 C290.00,-2.19 29.00,-3.19 0.00,7.81 z" class="st1" />
        </g>
        <g id="192" transform="translate(68.41,202.24) rotate(90.00,132.40,4.00)">
            <path d="M-7.20,0.00 L264.80,0.00 L272.00,8.00 L0.00,8.00 L-7.20,0.00 z" class="st2" />
        </g>
        <g id="194" transform="translate(204.94,67.61) translate(0,272.25) scale(1,-1)">
            <path d="M0.20,1.23 C0.20,1.23 0.00,272.25 0.00,272.25 C39.92,270.32 127.39,269.79 169.88,272.25 C169.88,272.25 169.88,1.40 169.88,1.40 C124.72,-1.26 44.46,0.51 0.20,1.23 z" class="st2" />
        </g>
        <g id="178" transform="translate(321.90,197.28) rotate(90.00,125.00,9.75)">
            <path d="M-20.00,0.00 L250.00,0.00 L270.00,19.50 L0.00,19.50 L-20.00,0.00 z" class="st1" />
        </g>
        <g id="179" transform="translate(1.41,197.28) rotate(90.00,125.00,9.75)">
            <path d="M-20.00,0.00 L250.00,0.00 L270.00,19.50 L0.00,19.50 L-20.00,0.00 z" class="st1" />
        </g>
        <g id="203" transform="translate(238.45,202.67) rotate(90.00,132.00,3.96)">
            <path d="M-7.20,0.00 L264.01,0.00 L271.21,7.93 L0.00,7.93 L-7.20,0.00 z" class="st2" />
        </g>
        <g id="219" transform="translate(453.36,40.00) rotate(-45.00,25.46,0.00)">
            <path d="M0.00,0.00 L50.91,0.00 " class="st2" />
        </g>
        <g id="220" transform="translate(453.36,310.24) rotate(-45.00,25.46,0.00)">
            <path d="M0.00,0.00 L50.91,0.00 " class="st2" />
        </g>
        <g id="221" transform="translate(351.01,169.24) rotate(90.00,133.00,0.00)">
            <path d="M0.00,0.00 L266.00,0.00 " class="st5" />
        </g>
        <g id="222" transform="translate(369.36,46.24) rotate(-45.00,25.46,0.00)">
            <path d="M0.00,0.00 L50.91,0.00 " class="st2" />
        </g>
        <g id="224" transform="translate(199.36,46.24) rotate(-45.00,25.46,0.00)">
            <path d="M0.00,0.00 L50.91,0.00 " class="st2" />
        </g>
        <g id="225" transform="translate(229.81,43.24)">
            <path d="M0.00,0.00 L170.00,0.00 " class="st5" />
        </g>
        <g id="226" transform="translate(460.81,332.24)">
            <path d="M0.00,0.00 L50.00,0.00 " class="st2" />
        </g>
        <g id="227" transform="translate(440.81,352.24)">
            <path d="M0.00,0.00 L50.00,0.00 " class="st2" />
        </g>
        <g id="228" transform="translate(472.67,342.24) rotate(135.00,14.14,0.00)">
            <path d="M0.00,0.00 L28.28,0.00 " class="st5" />
        </g>
        <g id="229" transform="translate(49.81,107.91)">
            <path d="M0.00,0.00 L144.00,0.00 " class="st2" />
        </g>
        <g id="230" transform="translate(49.81,302.57)">
            <path d="M0.00,0.00 L144.00,0.00 " class="st2" />
        </g>
        <g id="231" transform="translate(-31.19,205.24) rotate(90.00,97.00,0.00)">
            <path d="M0.00,0.00 L194.00,0.00 " class="st5" />
        </g>
        <g id="235" transform="translate(484.81,334.46)">
            <path d="M0.00,0.00 L74.00,0.00 L74.00,18.76 L0.00,18.76 L0.00,0.00 z" style="visibility:hidden" />
            <text>
                <tspan x="14.19" y="14.54" style="font-family:Arial;fill:#000000;font-size:12pt;">2·W(z)</tspan>
            </text>
        </g>
        <g id="236" transform="translate(155.81,356.00) rotate(-90.00,45.00,0.00)">
            <path d="M0.00,0.00 L90.00,0.00 " class="st2" />
        </g>
        <g id="237" transform="translate(325.45,356.00) rotate(-90.00,45.00,0.00)">
            <path d="M0.00,0.00 L90.00,0.00 " class="st2" />
        </g>
        <g id="238" transform="translate(200.81,386.00)">
            <path d="M0.00,0.00 L170.00,0.00 " class="st5" />
        </g>
        <g id="240" transform="translate(200.81,107.91)">
            <path d="M0.00,0.00 L169.64,0.00 L169.64,194.65 L0.00,194.65 L0.00,0.00 z" class="st1" />
        </g>
        <g id="180" transform="translate(116.66,73.34)">
            <path d="M0.00,7.81 C0.00,7.81 0.00,278.69 0.00,278.69 C30.00,269.81 291.00,268.81 320.50,278.69 C320.50,278.69 320.50,8.31 320.50,8.31 C290.00,-2.19 29.00,-3.19 0.00,7.81 z" class="st1" />
        </g>
        <g id="193" transform="translate(196.50,73.93)">
            <path d="M0.58,0.71 C0.58,0.71 0.31,271.91 0.31,271.91 C40.05,270.01 127.51,269.48 170.00,271.91 C170.00,271.91 170.00,1.77 170.00,1.77 C124.85,-0.88 44.85,0.00 0.58,0.71 z" class="st2" />
        </g>
        <g id="244" transform="translate(21.00,190.69)">
            <g id="232" transform="translate(0.00,0.00)">
                <path d="M0.00,0.00 L28.00,0.00 L28.00,28.00 L0.00,28.00 L0.00,0.00 z" style="visibility:hidden" />
                <text>
                    <tspan x="9.00" y="20.31" style="font-family:Arial;fill:#000000;font-size:12pt;">h</tspan>
                </text>
            </g>
            <g ed:type="shadow" transform="translate(53,227) translate(-51,-225) translate(10.00,6.31)">
                <path d="" style="fill:none;stroke:#BEBEBE; stroke-opacity:0.501961;" />
            </g>
            <g id="242" transform="translate(10.00,6.31)">
                <path d="M0.00,0.00 L40.00,0.00 L40.00,28.00 L0.00,28.00 L0.00,0.00 z" style="visibility:hidden" />
                <text>
                    <tspan x="11.00" y="17.00" style="font-family:Arial;fill:#000000;font-size:8pt;">fov</tspan>
                </text>
            </g>
        </g>
        <g id="245" transform="translate(265.50,385.38)">
            <g ed:type="shadow" transform="translate(283.5,411.376) translate(-281.5,-409.376) ">
                <path d="" style="fill:none;stroke:#BEBEBE; stroke-opacity:0.501961;" />
            </g>
            <g id="241">
                <path d="M0.00,0.00 L32.00,0.00 L32.00,24.00 L0.00,24.00 L0.00,0.00 z" style="visibility:hidden" />
                <text>
                    <tspan x="10.50" y="17.62" style="font-family:Arial;fill:#000000;font-size:12pt;">w</tspan>
                </text>
            </g>
            <g ed:type="shadow" transform="translate(300.5,419.376) translate(-298.5,-417.376) translate(13.00,4.00)">
                <path d="" style="fill:none;stroke:#BEBEBE; stroke-opacity:0.501961;" />
            </g>
            <g id="243" transform="translate(13.00,4.00)">
                <path d="M0.00,0.00 L40.00,0.00 L40.00,28.00 L0.00,28.00 L0.00,0.00 z" style="visibility:hidden" />
                <text>
                    <tspan x="11.50" y="16.62" style="font-family:Arial;fill:#000000;font-size:8pt;">fov</tspan>
                </text>
            </g>
        </g>
        <g id="247" transform="translate(484.81,171.00)">
            <g id="234" transform="translate(-0.00,0.00)">
                <path d="M0.00,0.00 L32.00,0.00 L32.00,40.00 L0.00,40.00 L0.00,0.00 z" style="visibility:hidden" />
                <text>
                    <tspan x="11.19" y="26.00" style="font-family:Arial;fill:#000000;font-size:12pt;">h</tspan>
                </text>
            </g>
            <g ed:type="shadow" transform="translate(514.811,212.688) translate(-512.811,-210.688) translate(8.00,11.69)">
                <path d="" style="fill:none;stroke:#BEBEBE; stroke-opacity:0.501961;" />
            </g>
            <g id="246" transform="translate(8.00,11.69)">
                <path d="M0.00,0.00 L40.00,0.00 L40.00,28.00 L0.00,28.00 L0.00,0.00 z" style="visibility:hidden" />
                <text>
                    <tspan x="13.19" y="17.31" style="font-family:Arial;fill:#000000;font-size:8pt;">LS</tspan>
                </text>
            </g>
        </g>
        <g id="249" transform="translate(262.87,21.00)">
            <g id="233" transform="translate(0.00,1.00)">
                <path d="M0.00,0.00 L95.94,0.00 L95.94,18.00 L0.00,18.00 L0.00,0.00 z" style="visibility:hidden" />
                <text>
                    <tspan x="38.13" y="14.00" style="font-family:Arial;fill:#000000;font-size:12pt;">2·z</tspan>
                </text>
            </g>
            <g ed:type="shadow" transform="translate(327.841,51) translate(-325.841,-49) translate(42.97,0.00)">
                <path d="" style="fill:none;stroke:#BEBEBE; stroke-opacity:0.501961;" />
            </g>
            <g id="248" transform="translate(42.97,0.00)">
                <path d="M0.00,0.00 L40.00,0.00 L40.00,28.00 L0.00,28.00 L0.00,0.00 z" style="visibility:hidden" />
                <text>
                    <tspan x="16.16" y="17.00" style="font-family:Arial;fill:#000000;font-size:8pt;">0</tspan>
                </text>
            </g>
        </g>
    </g>
</svg>
